<svg id="Capa_1" enable-background="new 0 0 512 512" height="512" viewBox="0 0 512 512" width="512" xmlns="http://www.w3.org/2000/svg"><g><path d="m421 137.308v-92.308c0-24.814-20.186-45-45-45s-45 20.186-45 45v92.308c-18.691 14.092-30 36.24-30 59.692 0 41.353 33.647 75 75 75s75-33.647 75-75c0-23.452-11.309-45.601-30-59.692z" fill="#edf5ff"/><path d="m451 197c0-23.452-11.309-45.601-30-59.692v-92.308c0-24.814-20.186-45-45-45v272c41.353 0 75-33.647 75-75z" fill="#d5e8fe"/><path d="m376 30c-8.284 0-15 6.716-15 15v46l15 15 15-15v-46c0-8.284-6.716-15-15-15z" fill="#d5e8fe"/><path d="m391 45c0-8.284-6.716-15-15-15v76l15-15z" fill="#b5dbff"/><path d="m391 154.754v-63.754h-15-15v63.754c-17.437 6.198-30 22.681-30 42.246 0 24.853 20.147 45 45 45s45-20.147 45-45c0-19.565-12.563-36.048-30-42.246z" fill="#ff6e83"/><path d="m421 197c0-19.565-12.563-36.048-30-42.246v-63.754h-15v151c24.853 0 45-20.147 45-45z" fill="#ff3b7f"/><path d="m376 302h-96.211l-77.534 77.534 21.211 21.211 68.745-68.745h83.789 105v-30z" fill="#47568c"/><path d="m376 302h105v30h-105z" fill="#3a4673"/><path d="m301 422h30v30h-30z" fill="#b3e4ff"/><path d="m301 482h30v30h-30z" fill="#ff6e83"/><path d="m301 362h30v30h-30z" fill="#a1e6ca"/><g fill="#d5e8fe"><path d="m361 422v30h15 105v-30h-105z"/><path d="m361 482v30h15 105v-30h-105z"/><path d="m376 362h-15v30h15 105v-30z"/></g><g fill="#b5dbff"><path d="m376 422h105v30h-105z"/><path d="m376 482h105v30h-105z"/><path d="m376 362h105v30h-105z"/></g><g><circle cx="136" cy="257" fill="#ffe1ba" r="75"/><path d="m211 257c0-41.353-33.647-75-75-75v150c41.353 0 75-33.647 75-75z" fill="#ffbfab"/><path d="m136 332c-57.891 0-105 47.109-105 105v75h105 105v-75c0-57.891-47.109-105-105-105z" fill="#ff6e83"/><path d="m241 437c0-57.891-47.109-105-105-105v180h105z" fill="#ff3b7f"/></g><path d="m376 182h-15v30h15 15v-30z" fill="#47568c"/><path d="m376 182h15v30h-15z" fill="#3a4673"/></g></svg>